<svg xmlns="http://www.w3.org/2000/svg" viewBox="0 0 180 180">
  <!-- Apple Touch Icon - Bootstrap Icons bi-printer on gradient background -->
  <defs>
    <linearGradient id="bgGradientLarge" x1="0%" y1="0%" x2="100%" y2="100%">
      <stop offset="0%" style="stop-color:#3B82F6;stop-opacity:1" />
      <stop offset="100%" style="stop-color:#1E40AF;stop-opacity:1" />
    </linearGradient>
  </defs>

  <!-- Background with rounded corners for iOS -->
  <rect width="180" height="180" rx="40" fill="url(#bgGradientLarge)"/>

  <!-- Bootstrap Icons bi-printer icon (scaled and centered) -->
  <g transform="translate(45, 45) scale(5.625)">
    <!-- LED indicator dot -->
    <path fill="#ffffff" d="M2.5 8a.5.5 0 1 0 0-1 .5.5 0 0 0 0 1z"/>
    <!-- Printer body -->
    <path fill="#ffffff" d="M5 1a2 2 0 0 0-2 2v2H2a2 2 0 0 0-2 2v3a2 2 0 0 0 2 2h1v1a2 2 0 0 0 2 2h6a2 2 0 0 0 2-2v-1h1a2 2 0 0 0 2-2V7a2 2 0 0 0-2-2h-1V3a2 2 0 0 0-2-2H5zM4 3a1 1 0 0 1 1-1h6a1 1 0 0 1 1 1v2H4V3zm1 5a2 2 0 0 0-2 2v1H2a1 1 0 0 1-1-1V7a1 1 0 0 1 1-1h12a1 1 0 0 1 1 1v3a1 1 0 0 1-1 1h-1v-1a2 2 0 0 0-2-2H5zm7 2v3a1 1 0 0 1-1 1H5a1 1 0 0 1-1-1v-3a1 1 0 0 1 1-1h6a1 1 0 0 1 1 1z"/>
  </g>
</svg>
